<mxfile host="app.diagrams.net" modified="2024-05-08T00:58:44.112Z" agent="Mozilla/5.0 (Windows NT 10.0; Win64; x64) AppleWebKit/537.36 (KHTML, like Gecko) Chrome/124.0.0.0 Safari/537.36" etag="BQMrv5fJzgIzWbiX12-I" version="24.3.1" type="google">
  <diagram name="Page-1" id="_T3SID-s4rWh3jMMUVS9">
    <mxGraphModel grid="1" page="1" gridSize="10" guides="1" tooltips="1" connect="1" arrows="1" fold="1" pageScale="1" pageWidth="827" pageHeight="1169" math="0" shadow="0">
      <root>
        <mxCell id="0" />
        <mxCell id="1" parent="0" />
        <mxCell id="8SwFYal9LpjMr-spIonT-2" value="Driver" style="rounded=1;whiteSpace=wrap;html=1;" vertex="1" parent="1">
          <mxGeometry x="40" y="250" width="120" height="60" as="geometry" />
        </mxCell>
        <mxCell id="8SwFYal9LpjMr-spIonT-11" style="edgeStyle=orthogonalEdgeStyle;rounded=0;orthogonalLoop=1;jettySize=auto;html=1;exitX=0.5;exitY=0;exitDx=0;exitDy=0;entryX=0.5;entryY=1;entryDx=0;entryDy=0;" edge="1" parent="1" source="8SwFYal9LpjMr-spIonT-3" target="8SwFYal9LpjMr-spIonT-6">
          <mxGeometry relative="1" as="geometry" />
        </mxCell>
        <mxCell id="8SwFYal9LpjMr-spIonT-3" value="TetrisGUIPanel" style="rounded=1;whiteSpace=wrap;html=1;" vertex="1" parent="1">
          <mxGeometry x="250" y="250" width="120" height="60" as="geometry" />
        </mxCell>
        <mxCell id="8SwFYal9LpjMr-spIonT-13" style="edgeStyle=orthogonalEdgeStyle;rounded=0;orthogonalLoop=1;jettySize=auto;html=1;entryX=0.647;entryY=1.01;entryDx=0;entryDy=0;entryPerimeter=0;" edge="1" parent="1" source="8SwFYal9LpjMr-spIonT-5" target="8SwFYal9LpjMr-spIonT-6">
          <mxGeometry relative="1" as="geometry">
            <mxPoint x="474" y="190" as="targetPoint" />
            <Array as="points">
              <mxPoint x="470" y="200" />
              <mxPoint x="328" y="200" />
            </Array>
          </mxGeometry>
        </mxCell>
        <mxCell id="8SwFYal9LpjMr-spIonT-5" value="TetrisGamePanel" style="rounded=1;whiteSpace=wrap;html=1;" vertex="1" parent="1">
          <mxGeometry x="414" y="250" width="120" height="60" as="geometry" />
        </mxCell>
        <mxCell id="8SwFYal9LpjMr-spIonT-6" value="JPanel" style="rounded=1;whiteSpace=wrap;html=1;" vertex="1" parent="1">
          <mxGeometry x="250" y="120" width="120" height="60" as="geometry" />
        </mxCell>
        <mxCell id="8SwFYal9LpjMr-spIonT-14" value="" style="html=1;labelBackgroundColor=#ffffff;startArrow=none;startFill=0;startSize=6;endArrow=classic;endFill=1;endSize=6;jettySize=auto;orthogonalLoop=1;strokeWidth=1;dashed=1;fontSize=14;rounded=0;entryX=0;entryY=0.5;entryDx=0;entryDy=0;exitX=1;exitY=0.5;exitDx=0;exitDy=0;" edge="1" parent="1" source="8SwFYal9LpjMr-spIonT-2" target="8SwFYal9LpjMr-spIonT-3">
          <mxGeometry width="60" height="60" relative="1" as="geometry">
            <mxPoint x="150" y="400" as="sourcePoint" />
            <mxPoint x="210" y="340" as="targetPoint" />
          </mxGeometry>
        </mxCell>
        <mxCell id="8SwFYal9LpjMr-spIonT-15" value="" style="html=1;labelBackgroundColor=#ffffff;startArrow=none;startFill=0;startSize=6;endArrow=classic;endFill=1;endSize=6;jettySize=auto;orthogonalLoop=1;strokeWidth=1;dashed=1;fontSize=14;rounded=0;entryX=0;entryY=0.5;entryDx=0;entryDy=0;exitX=1;exitY=0.5;exitDx=0;exitDy=0;" edge="1" parent="1" source="8SwFYal9LpjMr-spIonT-3" target="8SwFYal9LpjMr-spIonT-5">
          <mxGeometry width="60" height="60" relative="1" as="geometry">
            <mxPoint x="170" y="290" as="sourcePoint" />
            <mxPoint x="260" y="290" as="targetPoint" />
          </mxGeometry>
        </mxCell>
        <mxCell id="8SwFYal9LpjMr-spIonT-46" style="edgeStyle=orthogonalEdgeStyle;rounded=0;orthogonalLoop=1;jettySize=auto;html=1;exitX=0.75;exitY=1;exitDx=0;exitDy=0;entryX=0;entryY=0.5;entryDx=0;entryDy=0;" edge="1" parent="1" source="8SwFYal9LpjMr-spIonT-16" target="8SwFYal9LpjMr-spIonT-41">
          <mxGeometry relative="1" as="geometry">
            <mxPoint x="500" y="160" as="targetPoint" />
            <Array as="points">
              <mxPoint x="500" y="130" />
            </Array>
          </mxGeometry>
        </mxCell>
        <mxCell id="8SwFYal9LpjMr-spIonT-16" value="HoldArea" style="rounded=1;whiteSpace=wrap;html=1;" vertex="1" parent="1">
          <mxGeometry x="410" y="10" width="120" height="60" as="geometry" />
        </mxCell>
        <mxCell id="8SwFYal9LpjMr-spIonT-44" style="edgeStyle=orthogonalEdgeStyle;rounded=0;orthogonalLoop=1;jettySize=auto;html=1;exitX=1;exitY=0.5;exitDx=0;exitDy=0;entryX=0.5;entryY=0;entryDx=0;entryDy=0;" edge="1" parent="1" source="8SwFYal9LpjMr-spIonT-17" target="8SwFYal9LpjMr-spIonT-41">
          <mxGeometry relative="1" as="geometry" />
        </mxCell>
        <mxCell id="8SwFYal9LpjMr-spIonT-17" value="NextArea" style="rounded=1;whiteSpace=wrap;html=1;" vertex="1" parent="1">
          <mxGeometry x="550" y="10" width="120" height="60" as="geometry" />
        </mxCell>
        <mxCell id="8SwFYal9LpjMr-spIonT-18" value="" style="html=1;labelBackgroundColor=#ffffff;startArrow=none;startFill=0;startSize=6;endArrow=classic;endFill=1;endSize=6;jettySize=auto;orthogonalLoop=1;strokeWidth=1;dashed=1;fontSize=14;rounded=0;entryX=0.5;entryY=1;entryDx=0;entryDy=0;" edge="1" parent="1" target="8SwFYal9LpjMr-spIonT-16">
          <mxGeometry width="60" height="60" relative="1" as="geometry">
            <mxPoint x="310" y="240" as="sourcePoint" />
            <mxPoint x="440" y="180" as="targetPoint" />
          </mxGeometry>
        </mxCell>
        <mxCell id="8SwFYal9LpjMr-spIonT-19" value="" style="html=1;labelBackgroundColor=#ffffff;startArrow=none;startFill=0;startSize=6;endArrow=classic;endFill=1;endSize=6;jettySize=auto;orthogonalLoop=1;strokeWidth=1;dashed=1;fontSize=14;rounded=0;exitX=0.5;exitY=0;exitDx=0;exitDy=0;entryX=0.5;entryY=1;entryDx=0;entryDy=0;" edge="1" parent="1" source="8SwFYal9LpjMr-spIonT-3" target="8SwFYal9LpjMr-spIonT-17">
          <mxGeometry width="60" height="60" relative="1" as="geometry">
            <mxPoint x="380" y="240" as="sourcePoint" />
            <mxPoint x="440" y="180" as="targetPoint" />
          </mxGeometry>
        </mxCell>
        <mxCell id="8SwFYal9LpjMr-spIonT-20" value="Animatable" style="rounded=1;whiteSpace=wrap;html=1;" vertex="1" parent="1">
          <mxGeometry x="20" y="20" width="120" height="60" as="geometry" />
        </mxCell>
        <mxCell id="8SwFYal9LpjMr-spIonT-21" value="" style="html=1;labelBackgroundColor=#ffffff;startArrow=none;startFill=0;startSize=6;endArrow=classic;endFill=1;endSize=6;jettySize=auto;orthogonalLoop=1;strokeWidth=1;dashed=1;fontSize=14;rounded=0;entryX=1;entryY=0.5;entryDx=0;entryDy=0;exitX=0;exitY=0.5;exitDx=0;exitDy=0;strokeColor=#3399FF;" edge="1" parent="1" source="8SwFYal9LpjMr-spIonT-16" target="8SwFYal9LpjMr-spIonT-20">
          <mxGeometry width="60" height="60" relative="1" as="geometry">
            <mxPoint x="150" y="140" as="sourcePoint" />
            <mxPoint x="210" y="80" as="targetPoint" />
          </mxGeometry>
        </mxCell>
        <mxCell id="8SwFYal9LpjMr-spIonT-22" value="" style="html=1;labelBackgroundColor=#ffffff;startArrow=none;startFill=0;startSize=6;endArrow=classic;endFill=1;endSize=6;jettySize=auto;orthogonalLoop=1;strokeWidth=1;dashed=1;fontSize=14;rounded=0;exitX=0.75;exitY=1;exitDx=0;exitDy=0;entryX=0.5;entryY=1;entryDx=0;entryDy=0;fillColor=#66B2FF;strokeColor=#3399FF;" edge="1" parent="1" target="8SwFYal9LpjMr-spIonT-20">
          <mxGeometry width="60" height="60" relative="1" as="geometry">
            <mxPoint x="630" y="70" as="sourcePoint" />
            <mxPoint x="80" y="100" as="targetPoint" />
            <Array as="points">
              <mxPoint x="630" y="100" />
              <mxPoint x="110" y="100" />
            </Array>
          </mxGeometry>
        </mxCell>
        <mxCell id="8SwFYal9LpjMr-spIonT-24" value="FallingPiece&lt;div&gt;(abstract)&lt;/div&gt;" style="rounded=1;whiteSpace=wrap;html=1;" vertex="1" parent="1">
          <mxGeometry x="570" y="250" width="120" height="60" as="geometry" />
        </mxCell>
        <mxCell id="8SwFYal9LpjMr-spIonT-25" value="" style="html=1;labelBackgroundColor=#ffffff;startArrow=none;startFill=0;startSize=6;endArrow=classic;endFill=1;endSize=6;jettySize=auto;orthogonalLoop=1;strokeWidth=1;dashed=1;fontSize=14;rounded=0;entryX=0;entryY=0.5;entryDx=0;entryDy=0;exitX=1;exitY=0.5;exitDx=0;exitDy=0;" edge="1" parent="1" source="8SwFYal9LpjMr-spIonT-5" target="8SwFYal9LpjMr-spIonT-24">
          <mxGeometry width="60" height="60" relative="1" as="geometry">
            <mxPoint x="430" y="430" as="sourcePoint" />
            <mxPoint x="490" y="370" as="targetPoint" />
          </mxGeometry>
        </mxCell>
        <mxCell id="8SwFYal9LpjMr-spIonT-26" value="J" style="rounded=1;whiteSpace=wrap;html=1;" vertex="1" parent="1">
          <mxGeometry x="340" y="380" width="40" height="30" as="geometry" />
        </mxCell>
        <mxCell id="8SwFYal9LpjMr-spIonT-27" value="L" style="rounded=1;whiteSpace=wrap;html=1;" vertex="1" parent="1">
          <mxGeometry x="394" y="380" width="40" height="30" as="geometry" />
        </mxCell>
        <mxCell id="8SwFYal9LpjMr-spIonT-28" value="S" style="rounded=1;whiteSpace=wrap;html=1;arcSize=19;" vertex="1" parent="1">
          <mxGeometry x="450" y="380" width="40" height="30" as="geometry" />
        </mxCell>
        <mxCell id="8SwFYal9LpjMr-spIonT-29" value="Z" style="rounded=1;whiteSpace=wrap;html=1;" vertex="1" parent="1">
          <mxGeometry x="510" y="380" width="40" height="30" as="geometry" />
        </mxCell>
        <mxCell id="8SwFYal9LpjMr-spIonT-30" value="T" style="rounded=1;whiteSpace=wrap;html=1;" vertex="1" parent="1">
          <mxGeometry x="570" y="380" width="40" height="30" as="geometry" />
        </mxCell>
        <mxCell id="8SwFYal9LpjMr-spIonT-31" value="I" style="rounded=1;whiteSpace=wrap;html=1;" vertex="1" parent="1">
          <mxGeometry x="630" y="380" width="40" height="30" as="geometry" />
        </mxCell>
        <mxCell id="8SwFYal9LpjMr-spIonT-32" value="O" style="rounded=1;whiteSpace=wrap;html=1;" vertex="1" parent="1">
          <mxGeometry x="690" y="380" width="40" height="30" as="geometry" />
        </mxCell>
        <mxCell id="8SwFYal9LpjMr-spIonT-33" value="" style="html=1;labelBackgroundColor=#ffffff;startArrow=none;startFill=0;startSize=6;endArrow=classic;endFill=1;endSize=6;jettySize=auto;orthogonalLoop=1;strokeWidth=1;dashed=1;fontSize=14;rounded=0;entryX=0.5;entryY=1;entryDx=0;entryDy=0;exitX=0.5;exitY=0;exitDx=0;exitDy=0;strokeColor=#3399FF;" edge="1" parent="1" source="8SwFYal9LpjMr-spIonT-26" target="8SwFYal9LpjMr-spIonT-24">
          <mxGeometry width="60" height="60" relative="1" as="geometry">
            <mxPoint x="420" y="50" as="sourcePoint" />
            <mxPoint x="150" y="60" as="targetPoint" />
          </mxGeometry>
        </mxCell>
        <mxCell id="8SwFYal9LpjMr-spIonT-34" value="" style="html=1;labelBackgroundColor=#ffffff;startArrow=none;startFill=0;startSize=6;endArrow=classic;endFill=1;endSize=6;jettySize=auto;orthogonalLoop=1;strokeWidth=1;dashed=1;fontSize=14;rounded=0;entryX=0.5;entryY=1;entryDx=0;entryDy=0;exitX=0.5;exitY=0;exitDx=0;exitDy=0;strokeColor=#3399FF;" edge="1" parent="1" source="8SwFYal9LpjMr-spIonT-27" target="8SwFYal9LpjMr-spIonT-24">
          <mxGeometry width="60" height="60" relative="1" as="geometry">
            <mxPoint x="370" y="390" as="sourcePoint" />
            <mxPoint x="640" y="320" as="targetPoint" />
          </mxGeometry>
        </mxCell>
        <mxCell id="8SwFYal9LpjMr-spIonT-35" value="" style="html=1;labelBackgroundColor=#ffffff;startArrow=none;startFill=0;startSize=6;endArrow=classic;endFill=1;endSize=6;jettySize=auto;orthogonalLoop=1;strokeWidth=1;dashed=1;fontSize=14;rounded=0;entryX=0.5;entryY=1;entryDx=0;entryDy=0;exitX=0.5;exitY=0;exitDx=0;exitDy=0;strokeColor=#3399FF;" edge="1" parent="1" source="8SwFYal9LpjMr-spIonT-28" target="8SwFYal9LpjMr-spIonT-24">
          <mxGeometry width="60" height="60" relative="1" as="geometry">
            <mxPoint x="424" y="390" as="sourcePoint" />
            <mxPoint x="640" y="320" as="targetPoint" />
          </mxGeometry>
        </mxCell>
        <mxCell id="8SwFYal9LpjMr-spIonT-36" value="" style="html=1;labelBackgroundColor=#ffffff;startArrow=none;startFill=0;startSize=6;endArrow=classic;endFill=1;endSize=6;jettySize=auto;orthogonalLoop=1;strokeWidth=1;dashed=1;fontSize=14;rounded=0;entryX=0.5;entryY=1;entryDx=0;entryDy=0;exitX=0.5;exitY=0;exitDx=0;exitDy=0;strokeColor=#3399FF;" edge="1" parent="1" source="8SwFYal9LpjMr-spIonT-28" target="8SwFYal9LpjMr-spIonT-24">
          <mxGeometry width="60" height="60" relative="1" as="geometry">
            <mxPoint x="434" y="400" as="sourcePoint" />
            <mxPoint x="650" y="330" as="targetPoint" />
          </mxGeometry>
        </mxCell>
        <mxCell id="8SwFYal9LpjMr-spIonT-37" value="" style="html=1;labelBackgroundColor=#ffffff;startArrow=none;startFill=0;startSize=6;endArrow=classic;endFill=1;endSize=6;jettySize=auto;orthogonalLoop=1;strokeWidth=1;dashed=1;fontSize=14;rounded=0;entryX=0.5;entryY=1;entryDx=0;entryDy=0;exitX=0.5;exitY=0;exitDx=0;exitDy=0;strokeColor=#3399FF;" edge="1" parent="1" source="8SwFYal9LpjMr-spIonT-29" target="8SwFYal9LpjMr-spIonT-24">
          <mxGeometry width="60" height="60" relative="1" as="geometry">
            <mxPoint x="444" y="410" as="sourcePoint" />
            <mxPoint x="660" y="340" as="targetPoint" />
          </mxGeometry>
        </mxCell>
        <mxCell id="8SwFYal9LpjMr-spIonT-38" value="" style="html=1;labelBackgroundColor=#ffffff;startArrow=none;startFill=0;startSize=6;endArrow=classic;endFill=1;endSize=6;jettySize=auto;orthogonalLoop=1;strokeWidth=1;dashed=1;fontSize=14;rounded=0;entryX=0.5;entryY=1;entryDx=0;entryDy=0;exitX=0.5;exitY=0;exitDx=0;exitDy=0;strokeColor=#3399FF;" edge="1" parent="1" source="8SwFYal9LpjMr-spIonT-30" target="8SwFYal9LpjMr-spIonT-24">
          <mxGeometry width="60" height="60" relative="1" as="geometry">
            <mxPoint x="454" y="420" as="sourcePoint" />
            <mxPoint x="670" y="350" as="targetPoint" />
          </mxGeometry>
        </mxCell>
        <mxCell id="8SwFYal9LpjMr-spIonT-39" value="" style="html=1;labelBackgroundColor=#ffffff;startArrow=none;startFill=0;startSize=6;endArrow=classic;endFill=1;endSize=6;jettySize=auto;orthogonalLoop=1;strokeWidth=1;dashed=1;fontSize=14;rounded=0;exitX=0.5;exitY=0;exitDx=0;exitDy=0;strokeColor=#3399FF;entryX=0.5;entryY=1;entryDx=0;entryDy=0;" edge="1" parent="1" source="8SwFYal9LpjMr-spIonT-31" target="8SwFYal9LpjMr-spIonT-24">
          <mxGeometry width="60" height="60" relative="1" as="geometry">
            <mxPoint x="600" y="390" as="sourcePoint" />
            <mxPoint x="620" y="310" as="targetPoint" />
          </mxGeometry>
        </mxCell>
        <mxCell id="8SwFYal9LpjMr-spIonT-40" value="" style="html=1;labelBackgroundColor=#ffffff;startArrow=none;startFill=0;startSize=6;endArrow=classic;endFill=1;endSize=6;jettySize=auto;orthogonalLoop=1;strokeWidth=1;dashed=1;fontSize=14;rounded=0;exitX=0.5;exitY=0;exitDx=0;exitDy=0;strokeColor=#3399FF;entryX=0.5;entryY=1;entryDx=0;entryDy=0;" edge="1" parent="1" source="8SwFYal9LpjMr-spIonT-32" target="8SwFYal9LpjMr-spIonT-24">
          <mxGeometry width="60" height="60" relative="1" as="geometry">
            <mxPoint x="720" y="350" as="sourcePoint" />
            <mxPoint x="700" y="280" as="targetPoint" />
          </mxGeometry>
        </mxCell>
        <mxCell id="8SwFYal9LpjMr-spIonT-41" value="PieceDisplayArea" style="rounded=1;whiteSpace=wrap;html=1;" vertex="1" parent="1">
          <mxGeometry x="670" y="100" width="120" height="60" as="geometry" />
        </mxCell>
        <mxCell id="8SwFYal9LpjMr-spIonT-47" value="Block" style="rounded=1;whiteSpace=wrap;html=1;" vertex="1" parent="1">
          <mxGeometry x="520" y="470" width="70" height="30" as="geometry" />
        </mxCell>
        <mxCell id="8SwFYal9LpjMr-spIonT-48" value="" style="html=1;labelBackgroundColor=#ffffff;startArrow=none;startFill=0;startSize=6;endArrow=classic;endFill=1;endSize=6;jettySize=auto;orthogonalLoop=1;strokeWidth=1;dashed=1;fontSize=14;rounded=0;entryX=0.5;entryY=0;entryDx=0;entryDy=0;exitX=0.5;exitY=1;exitDx=0;exitDy=0;" edge="1" parent="1" source="8SwFYal9LpjMr-spIonT-26" target="8SwFYal9LpjMr-spIonT-47">
          <mxGeometry width="60" height="60" relative="1" as="geometry">
            <mxPoint x="310" y="500" as="sourcePoint" />
            <mxPoint x="370" y="440" as="targetPoint" />
          </mxGeometry>
        </mxCell>
        <mxCell id="8SwFYal9LpjMr-spIonT-49" value="" style="html=1;labelBackgroundColor=#ffffff;startArrow=none;startFill=0;startSize=6;endArrow=classic;endFill=1;endSize=6;jettySize=auto;orthogonalLoop=1;strokeWidth=1;dashed=1;fontSize=14;rounded=0;exitX=0.5;exitY=1;exitDx=0;exitDy=0;" edge="1" parent="1" source="8SwFYal9LpjMr-spIonT-27">
          <mxGeometry width="60" height="60" relative="1" as="geometry">
            <mxPoint x="370" y="420" as="sourcePoint" />
            <mxPoint x="550" y="470" as="targetPoint" />
          </mxGeometry>
        </mxCell>
        <mxCell id="8SwFYal9LpjMr-spIonT-50" value="" style="html=1;labelBackgroundColor=#ffffff;startArrow=none;startFill=0;startSize=6;endArrow=classic;endFill=1;endSize=6;jettySize=auto;orthogonalLoop=1;strokeWidth=1;dashed=1;fontSize=14;rounded=0;exitX=0.5;exitY=1;exitDx=0;exitDy=0;entryX=0.5;entryY=0;entryDx=0;entryDy=0;" edge="1" parent="1" source="8SwFYal9LpjMr-spIonT-28" target="8SwFYal9LpjMr-spIonT-47">
          <mxGeometry width="60" height="60" relative="1" as="geometry">
            <mxPoint x="424" y="420" as="sourcePoint" />
            <mxPoint x="560" y="480" as="targetPoint" />
          </mxGeometry>
        </mxCell>
        <mxCell id="8SwFYal9LpjMr-spIonT-51" value="" style="html=1;labelBackgroundColor=#ffffff;startArrow=none;startFill=0;startSize=6;endArrow=classic;endFill=1;endSize=6;jettySize=auto;orthogonalLoop=1;strokeWidth=1;dashed=1;fontSize=14;rounded=0;exitX=0.5;exitY=1;exitDx=0;exitDy=0;entryX=0.5;entryY=0;entryDx=0;entryDy=0;" edge="1" parent="1" source="8SwFYal9LpjMr-spIonT-29" target="8SwFYal9LpjMr-spIonT-47">
          <mxGeometry width="60" height="60" relative="1" as="geometry">
            <mxPoint x="480" y="420" as="sourcePoint" />
            <mxPoint x="565" y="480" as="targetPoint" />
          </mxGeometry>
        </mxCell>
        <mxCell id="8SwFYal9LpjMr-spIonT-52" value="" style="html=1;labelBackgroundColor=#ffffff;startArrow=none;startFill=0;startSize=6;endArrow=classic;endFill=1;endSize=6;jettySize=auto;orthogonalLoop=1;strokeWidth=1;dashed=1;fontSize=14;rounded=0;exitX=0.5;exitY=1;exitDx=0;exitDy=0;entryX=0.5;entryY=0;entryDx=0;entryDy=0;" edge="1" parent="1" source="8SwFYal9LpjMr-spIonT-30" target="8SwFYal9LpjMr-spIonT-47">
          <mxGeometry width="60" height="60" relative="1" as="geometry">
            <mxPoint x="540" y="420" as="sourcePoint" />
            <mxPoint x="565" y="480" as="targetPoint" />
          </mxGeometry>
        </mxCell>
        <mxCell id="8SwFYal9LpjMr-spIonT-53" value="" style="html=1;labelBackgroundColor=#ffffff;startArrow=none;startFill=0;startSize=6;endArrow=classic;endFill=1;endSize=6;jettySize=auto;orthogonalLoop=1;strokeWidth=1;dashed=1;fontSize=14;rounded=0;exitX=0.5;exitY=1;exitDx=0;exitDy=0;entryX=0.5;entryY=0;entryDx=0;entryDy=0;" edge="1" parent="1" source="8SwFYal9LpjMr-spIonT-31" target="8SwFYal9LpjMr-spIonT-47">
          <mxGeometry width="60" height="60" relative="1" as="geometry">
            <mxPoint x="600" y="420" as="sourcePoint" />
            <mxPoint x="565" y="480" as="targetPoint" />
          </mxGeometry>
        </mxCell>
        <mxCell id="8SwFYal9LpjMr-spIonT-54" value="" style="html=1;labelBackgroundColor=#ffffff;startArrow=none;startFill=0;startSize=6;endArrow=classic;endFill=1;endSize=6;jettySize=auto;orthogonalLoop=1;strokeWidth=1;dashed=1;fontSize=14;rounded=0;exitX=0.5;exitY=1;exitDx=0;exitDy=0;entryX=0.5;entryY=0;entryDx=0;entryDy=0;" edge="1" parent="1" source="8SwFYal9LpjMr-spIonT-32" target="8SwFYal9LpjMr-spIonT-47">
          <mxGeometry width="60" height="60" relative="1" as="geometry">
            <mxPoint x="660" y="420" as="sourcePoint" />
            <mxPoint x="565" y="480" as="targetPoint" />
          </mxGeometry>
        </mxCell>
      </root>
    </mxGraphModel>
  </diagram>
</mxfile>
